<svg width="56" height="56" viewBox="0 0 56 56" fill="none" xmlns="http://www.w3.org/2000/svg">
<g clip-path="url(#clip0_78_771)">
<path d="M25.5 26.8632C27.3235 26.8632 28.8017 25.385 28.8017 23.5615C28.8017 21.738 27.3235 20.2598 25.5 20.2598C23.6765 20.2598 22.1983 21.738 22.1983 23.5615C22.1983 25.385 23.6765 26.8632 25.5 26.8632Z" stroke="#B18133" stroke-width="1.93361" stroke-miterlimit="10" stroke-linecap="round" stroke-linejoin="round"/>
<path d="M25.5 4.72803C24.8592 4.72803 24.2259 4.76029 23.6015 4.82286V8.26445C23.6015 8.73235 23.9808 9.11167 24.4487 9.11167H26.5512C27.0191 9.11167 27.3984 8.73235 27.3984 8.26445V4.82286C26.7742 4.76029 26.1408 4.72803 25.5 4.72803Z" stroke="#B18133" stroke-width="1.93361" stroke-miterlimit="10" stroke-linecap="round" stroke-linejoin="round"/>
<path d="M25.5 42.3949C24.8592 42.3949 24.2259 42.3626 23.6015 42.3V38.8584C23.6015 38.3905 23.9808 38.0112 24.4487 38.0112H26.5512C27.0191 38.0112 27.3984 38.3905 27.3984 38.8584V42.3C26.7742 42.3626 26.1408 42.3949 25.5 42.3949Z" stroke="#B18133" stroke-width="1.93361" stroke-miterlimit="10" stroke-linecap="round" stroke-linejoin="round"/>
<path d="M6.66655 23.5615C6.66655 24.2023 6.69882 24.8356 6.76138 25.46H10.203C10.6709 25.46 11.0502 25.0807 11.0502 24.6128V22.5103C11.0502 22.0424 10.6709 21.6631 10.203 21.6631H6.76138C6.69892 22.2873 6.66655 22.9206 6.66655 23.5615Z" stroke="#B18133" stroke-width="1.93361" stroke-miterlimit="10" stroke-linecap="round" stroke-linejoin="round"/>
<path d="M44.3334 23.5615C44.3334 24.2023 44.3011 24.8356 44.2386 25.46H40.797C40.3291 25.46 39.9498 25.0807 39.9498 24.6128V22.5103C39.9498 22.0424 40.3291 21.6631 40.797 21.6631H44.2386C44.3011 22.2873 44.3334 22.9206 44.3334 23.5615Z" stroke="#B18133" stroke-width="1.93361" stroke-miterlimit="10" stroke-linecap="round" stroke-linejoin="round"/>
<path d="M22.1982 23.5614C22.1982 22.9198 22.3817 22.3214 22.6984 21.8147H16.3464C15.3817 21.8147 14.5997 22.5967 14.5997 23.5614C14.5997 24.5261 15.3817 25.3081 16.3464 25.3081H22.6984C22.3818 24.8014 22.1982 24.203 22.1982 23.5614Z" stroke="#B18133" stroke-width="1.93361" stroke-miterlimit="10" stroke-linecap="round" stroke-linejoin="round"/>
<path d="M25.5 19.9072V12.126" stroke="#B18133" stroke-width="1.93361" stroke-miterlimit="10" stroke-linecap="round" stroke-linejoin="round"/>
<path d="M52.0584 33.5638L42.9605 29.4843C42.4396 29.2507 41.8437 29.2507 41.3227 29.4843L32.2248 33.5638C31.5052 33.8865 31.0422 34.6016 31.0422 35.3902V39.8866C31.0422 46.3277 35.1483 51.9526 41.2553 54.9729C41.8135 55.2489 42.4697 55.2489 43.028 54.9729C49.1351 51.9527 53.2411 46.3277 53.2411 39.8866V35.3902C53.2411 34.6015 52.778 33.8865 52.0584 33.5638Z" stroke="#B18133" stroke-width="1.93361" stroke-miterlimit="10" stroke-linecap="round" stroke-linejoin="round"/>
<path d="M31.0421 39.8865V35.39C31.0421 34.6014 31.5051 33.8863 32.2247 33.5637L41.3226 29.4842C41.8435 29.2505 42.4394 29.2505 42.9604 29.4842L43.3272 29.6487C43.9791 27.7391 44.3333 25.6917 44.3333 23.5612C44.3333 13.1598 35.9012 4.72778 25.4998 4.72778C15.0984 4.72778 6.66634 13.1598 6.66634 23.5612C6.66634 33.9627 15.0984 42.3947 25.4998 42.3947C27.4628 42.3947 29.3554 42.094 31.1346 41.5369C31.0749 40.9935 31.0421 40.4433 31.0421 39.8865Z" stroke="#B18133" stroke-width="1.93361" stroke-miterlimit="10" stroke-linecap="round" stroke-linejoin="round"/>
<path d="M39.869 41.514L41.8212 43.4663L44.6753 40.6123" stroke="#B18133" stroke-width="1.93361" stroke-miterlimit="10" stroke-linecap="round" stroke-linejoin="round"/>
<path d="M27.4141 46.2219C29.0181 46.0878 30.5749 45.7877 32.0671 45.3383C31.4036 43.6229 31.0421 41.7908 31.0421 39.8865V35.39C31.0421 34.6014 31.5051 33.8863 32.2247 33.5637L41.3226 29.4842C41.8436 29.2505 42.4394 29.2505 42.9604 29.4842L46.9059 31.2533C47.7694 28.8508 48.2411 26.2612 48.2411 23.5613C48.2412 11.0018 38.0596 0.820312 25.5 0.820312C12.9405 0.820312 2.7589 11.0018 2.7589 23.5615C2.7589 35.4762 11.9223 45.2494 23.586 46.2217" stroke="#B18133" stroke-width="1.93361" stroke-miterlimit="10" stroke-linecap="round" stroke-linejoin="round"/>
<path d="M47.7932 39.8194C46.9954 37.4631 44.7674 35.7664 42.1416 35.7664C38.8461 35.7664 36.1745 38.438 36.1745 41.7335C36.1745 45.029 38.846 47.7006 42.1416 47.7006C44.7674 47.7006 46.9954 46.0038 47.7932 43.6476" stroke="#B18133" stroke-width="1.93361" stroke-miterlimit="10" stroke-linecap="round" stroke-linejoin="round"/>
</g>
<defs>
<clipPath id="clip0_78_771">
<rect width="56" height="56" fill="white"/>
</clipPath>
</defs>
</svg>
