<svg width="66" height="66" viewBox="0 0 66 66" fill="none" xmlns="http://www.w3.org/2000/svg">
<path d="M46.5183 54.0209H19.4817C18.9594 54.0209 18.5362 53.5976 18.5362 53.0754V35.0759H13.3604C12.9592 35.0759 12.6022 34.8228 12.4687 34.4446C12.3354 34.0663 12.4551 33.6454 12.7672 33.3938L32.4069 17.5798C32.7533 17.3005 33.2468 17.3013 33.5933 17.5798L53.2328 33.3937C53.545 33.6452 53.6647 34.0663 53.5313 34.4445C53.398 34.8227 53.0408 35.0757 52.6398 35.0757H47.4639V53.0753C47.4638 53.5976 47.0404 54.0209 46.5183 54.0209ZM20.4274 52.1299H45.5726V34.1303C45.5726 33.608 45.9959 33.1847 46.5183 33.1847H49.9578L33.0001 19.5305L16.0424 33.1847H19.4819C20.0042 33.1847 20.4274 33.608 20.4274 34.1303V52.1299Z" fill="#B18133"/>
<path d="M55.1905 54.0209H10.8099C10.2876 54.0209 9.86423 53.5976 9.86423 53.0754C9.86423 52.5531 10.2876 52.1299 10.8099 52.1299H55.1905C55.7127 52.1299 56.136 52.5531 56.136 53.0754C56.136 53.5976 55.7127 54.0209 55.1905 54.0209Z" fill="#B18133"/>
<path d="M38.6833 54.021H27.3169C26.7946 54.021 26.3714 53.5977 26.3714 53.0755V38.8383C26.3714 38.316 26.7946 37.8928 27.3169 37.8928H38.6833C39.2055 37.8928 39.6288 38.3161 39.6288 38.8383V53.0755C39.6288 53.5977 39.2055 54.021 38.6833 54.021ZM28.2624 52.1299H37.7378V39.7839H28.2624V52.1299Z" fill="#B18133"/>
<path d="M38.7696 34.8772H27.2307C26.7085 34.8772 26.2852 34.4539 26.2852 33.9317C26.2852 33.4094 26.7085 32.9861 27.2307 32.9861H38.7696C39.2919 32.9861 39.7151 33.4094 39.7151 33.9317C39.7152 34.4539 39.2919 34.8772 38.7696 34.8772Z" fill="#B18133"/>
<path d="M33.0001 31.8287C32.8594 31.8287 32.7183 31.7973 32.5883 31.7341C30.1619 30.5602 29.264 29.0574 28.9378 28.0031C28.858 27.7775 28.8015 27.5066 28.7815 27.2314C28.7675 27.0886 28.7712 26.9903 28.7715 26.9759C28.7711 25.356 30.0281 24.0203 31.5728 24.0203C32.0837 24.0203 32.5738 24.1653 33.0001 24.4336C33.426 24.1653 33.9165 24.0203 34.4273 24.0203C35.9693 24.0203 37.2241 25.3507 37.2285 26.988C37.2293 26.988 37.2323 27.0897 37.2171 27.2515C37.1983 27.5027 37.144 27.7652 37.0577 28.0164C36.7282 29.0706 35.8273 30.5654 33.4121 31.7341C33.2819 31.7973 33.1408 31.8287 33.0001 31.8287ZM31.5729 25.9116C31.0709 25.9116 30.6624 26.3984 30.6624 26.9967C30.6632 27.0037 30.6673 27.0865 30.6677 27.0936C30.6759 27.2021 30.6979 27.3089 30.7338 27.4112C30.9067 27.9685 31.416 28.9448 33.0003 29.8192C34.5856 28.9445 35.0934 27.9697 35.2559 27.443C35.3025 27.3079 35.3245 27.2012 35.3327 27.0922C35.3324 27.0786 35.3376 27.0105 35.3376 26.9969C35.3376 26.3985 34.9294 25.9117 34.4276 25.9117C34.1727 25.9117 33.9266 26.0428 33.7535 26.2711C33.5747 26.5064 33.2962 26.645 33.0007 26.645C32.7047 26.645 32.4262 26.5067 32.2475 26.2715C32.145 26.1369 31.9216 25.9116 31.5729 25.9116Z" fill="#B18133"/>
<path d="M49.585 25.3191C49.5573 25.3191 49.5296 25.3179 49.5015 25.3154C46.2411 25.0264 43.6869 22.1037 43.6869 18.6612C43.6869 14.9769 46.5369 11.979 50.0403 11.979C53.5437 11.979 56.3937 14.9767 56.3937 18.6612C56.3937 18.6826 56.39 18.7668 56.3888 18.788C56.3701 19.0634 56.2307 19.3434 56.0095 19.5085C55.789 19.6735 55.5064 19.7604 55.2353 19.6998C54.9605 19.6382 54.6834 19.6068 54.4123 19.6068C52.2418 19.6068 50.4759 21.4651 50.4759 23.7488C50.4759 23.8932 50.4956 24.0328 50.5124 24.1721L50.5235 24.2607C50.5575 24.5437 50.4618 24.827 50.2635 25.0316C50.085 25.2161 49.8399 25.3191 49.585 25.3191ZM50.0404 13.8702C47.5801 13.8702 45.5782 16.0197 45.5782 18.6612C45.5782 20.7371 46.845 22.5473 48.6095 23.1945C48.8807 20.1266 51.3797 17.7157 54.4127 17.7157C54.0056 15.5254 52.1997 13.8702 50.0404 13.8702Z" fill="#B18133"/>
<path d="M57.2017 38.0147C54.1696 38.0147 51.7029 35.2604 51.7029 31.8747C51.7029 28.4896 54.1696 25.7351 57.2017 25.7351C60.2333 25.7351 62.7 28.4894 62.7 31.8747C62.7 35.2602 60.2333 38.0147 57.2017 38.0147ZM57.2017 27.6263C55.2123 27.6263 53.5941 29.5322 53.5941 31.8747C53.5941 34.2176 55.2123 36.1235 57.2017 36.1235C59.1906 36.1235 60.8088 34.2176 60.8088 31.8747C60.8088 29.5322 59.1906 27.6263 57.2017 27.6263Z" fill="#B18133"/>
<path d="M46.5179 49.735C46.4055 49.735 46.2913 49.7147 46.1806 49.6722C45.6938 49.486 45.4492 48.9419 45.6343 48.4547C45.7174 48.2365 47.7282 43.1068 52.7197 43.4753C53.3506 43.5244 53.8464 43.3535 54.2892 42.9406C55.7197 41.6086 56.0196 38.2464 56.0145 37.0633C56.0122 36.5409 56.4337 36.1158 56.956 36.1135C57.4806 36.1135 57.9034 36.5342 57.9056 37.0551C57.9079 37.575 57.8617 42.1981 55.5783 44.3245C54.7572 45.0886 53.7194 45.4447 52.5772 45.3612C49.0148 45.093 47.4648 48.9636 47.4013 49.1287C47.2561 49.5043 46.8975 49.735 46.5179 49.735Z" fill="#B18133"/>
<path d="M47.7407 41.0683C47.0959 41.0683 46.6555 40.9816 46.6116 40.9723C46.1001 40.8674 45.771 40.3674 45.8762 39.8558C45.981 39.3449 46.4772 39.018 46.9891 39.1193C47.0331 39.1282 48.9079 39.4698 50.2764 38.3869C51.2626 37.6061 51.7997 36.2387 51.8731 34.3228C51.8934 33.8013 52.3385 33.4072 52.8541 33.4142C53.3761 33.4342 53.7826 33.8733 53.7627 34.3952C53.667 36.8999 52.8821 38.7471 51.4305 39.8848C50.177 40.8674 48.7221 41.0683 47.7407 41.0683Z" fill="#B18133"/>
<path d="M53.5675 29.7005C53.5114 29.7005 53.4545 29.6953 53.398 29.6851C50.6093 29.1767 48.5851 26.6802 48.5851 23.749C48.5851 20.4221 51.1995 17.7158 54.4127 17.7158C57.6258 17.7158 60.2401 20.4221 60.2401 23.749C60.2401 25.0736 59.8282 26.3346 59.0493 27.395C58.8162 27.7119 58.4117 27.8529 58.0327 27.7458C57.7443 27.6653 57.4725 27.6261 57.2014 27.6261C56.086 27.6261 55.0492 28.2275 54.3565 29.276C54.1795 29.5438 53.8815 29.7005 53.5675 29.7005ZM54.4125 19.6069C52.242 19.6069 50.4761 21.4651 50.4761 23.7489C50.4761 25.5655 51.5882 27.1363 53.1895 27.6822C54.3655 26.2824 56.0772 25.5396 57.8398 25.7789C58.1741 25.1602 58.3489 24.4684 58.3489 23.7489C58.3489 21.4651 56.583 19.6069 54.4125 19.6069Z" fill="#B18133"/>
<path d="M16.4154 25.3191C16.1609 25.3191 15.916 25.2164 15.7369 25.0321C15.5385 24.8279 15.4429 24.5453 15.4765 24.2623L15.488 24.1681C15.5046 24.0301 15.5237 23.8919 15.5237 23.7489C15.5237 21.4652 13.7578 19.6069 11.5874 19.6069C11.3162 19.6069 11.0396 19.6383 10.7649 19.6999C10.4886 19.7621 10.2008 19.6974 9.97736 19.5237C9.75428 19.3504 9.62056 19.0867 9.61251 18.8042C9.60868 18.7473 9.60657 18.7044 9.60657 18.6612C9.60657 14.9769 12.4566 11.979 15.96 11.979C19.4634 11.979 22.3134 14.9767 22.3134 18.6612C22.3134 22.1037 19.7592 25.0265 16.4989 25.3154C16.4708 25.318 16.443 25.3191 16.4154 25.3191ZM11.5874 17.7157C14.6202 17.7157 17.1193 20.1266 17.3905 23.1945C19.1549 22.5477 20.4223 20.7371 20.4223 18.6612C20.4223 16.0195 18.4202 13.8702 15.9599 13.8702C13.801 13.8702 11.9948 15.5253 11.5849 17.7157H11.5874Z" fill="#B18133"/>
<path d="M8.79859 38.0147C5.76655 38.0147 3.3 35.2602 3.3 31.8747C3.3 28.4896 5.76655 25.7351 8.79859 25.7351C11.8308 25.7351 14.2973 28.4894 14.2973 31.8747C14.2973 35.2602 11.8309 38.0147 8.79859 38.0147ZM8.79859 27.6263C6.80922 27.6263 5.19104 29.5322 5.19104 31.8747C5.19104 34.2176 6.80922 36.1235 8.79859 36.1235C10.788 36.1235 12.4062 34.2176 12.4062 31.8747C12.4063 29.5322 10.7881 27.6263 8.79859 27.6263Z" fill="#B18133"/>
<path d="M19.4818 49.7367C19.1012 49.7367 18.7427 49.505 18.5985 49.1291C18.5349 48.9639 17.0017 45.0933 13.423 45.3615C12.2801 45.448 11.2434 45.0893 10.4219 44.3248C8.13846 42.1984 8.092 37.5754 8.09411 37.0554C8.09675 36.5335 8.54621 36.14 9.04306 36.1143C9.56499 36.1161 9.98673 36.5409 9.98527 37.0628C9.98224 38.2488 10.2862 41.6167 11.7124 42.9424C12.1552 43.3538 12.6538 43.5238 13.2803 43.4756C18.2722 43.1052 20.2826 48.2365 20.3655 48.4551C20.5508 48.9433 20.3056 49.4893 19.8173 49.6748C19.7071 49.7166 19.5937 49.7367 19.4818 49.7367Z" fill="#B18133"/>
<path d="M18.2592 41.0683C17.2777 41.0683 15.8228 40.8674 14.5692 39.8846C13.1178 38.7469 12.3328 36.8996 12.2371 34.3949C12.2171 33.873 12.6238 33.4339 13.1457 33.4139C13.6683 33.4065 14.1068 33.8011 14.1268 34.3226C14.2003 36.2385 14.7374 37.6058 15.7236 38.3866C17.1009 39.4773 18.992 39.1224 19.0117 39.1191C19.5211 39.0204 20.0204 39.3504 20.1227 39.8603C20.225 40.3708 19.8982 40.8676 19.3884 40.9721C19.3445 40.9815 18.9037 41.0683 18.2592 41.0683Z" fill="#B18133"/>
<path d="M12.4328 29.7005C12.1189 29.7005 11.8207 29.5442 11.6438 29.2761C10.7847 27.9764 9.4376 27.3355 7.96791 27.7458C7.59079 27.8518 7.18449 27.7127 6.95112 27.3954C6.17179 26.3349 5.75995 25.0739 5.75995 23.749C5.75995 20.4221 8.37434 17.7158 11.5874 17.7158C14.8005 17.7158 17.4148 20.4221 17.4148 23.749C17.4148 26.6799 15.3911 29.1765 12.6023 29.6851C12.5458 29.6953 12.489 29.7005 12.4328 29.7005ZM8.79859 25.735C10.3196 25.735 11.7772 26.4522 12.8103 27.6822C14.4115 27.1363 15.5237 25.5655 15.5237 23.7489C15.5237 21.4651 13.7578 19.6069 11.5874 19.6069C9.41701 19.6069 7.65111 21.4651 7.65111 23.7489C7.65111 24.4684 7.82588 25.1602 8.1605 25.7789C8.3746 25.7497 8.58818 25.735 8.79859 25.735Z" fill="#B18133"/>
</svg>
