<svg width="56" height="56" viewBox="0 0 56 56" fill="none" xmlns="http://www.w3.org/2000/svg">
<path d="M28.875 4.05357V2.18457C28.875 1.95251 28.7828 1.72995 28.6187 1.56585C28.4546 1.40176 28.2321 1.30957 28 1.30957C27.7679 1.30957 27.5454 1.40176 27.3813 1.56585C27.2172 1.72995 27.125 1.95251 27.125 2.18457V4.05357C27.125 4.28563 27.2172 4.50819 27.3813 4.67229C27.5454 4.83638 27.7679 4.92857 28 4.92857C28.2321 4.92857 28.4546 4.83638 28.6187 4.67229C28.7828 4.50819 28.875 4.28563 28.875 4.05357Z" fill="#B18133"/>
<path d="M21.9565 4.01018C21.7844 3.85511 21.5577 3.77477 21.3263 3.78683C21.095 3.79889 20.8779 3.90236 20.7228 4.07448C20.5678 4.2466 20.4874 4.47326 20.4995 4.70462C20.5115 4.93597 20.615 5.15306 20.7871 5.30812L22.1681 6.5443C22.2534 6.62109 22.3529 6.68033 22.461 6.71866C22.5691 6.75698 22.6837 6.77364 22.7983 6.76767C22.9128 6.7617 23.0251 6.73323 23.1287 6.68388C23.2322 6.63453 23.325 6.56526 23.4018 6.48004C23.4786 6.39482 23.5378 6.29531 23.5762 6.18719C23.6145 6.07907 23.6311 5.96446 23.6252 5.8499C23.6192 5.73535 23.5907 5.62309 23.5414 5.51954C23.492 5.41599 23.4228 5.32317 23.3375 5.24638L21.9565 4.01018Z" fill="#B18133"/>
<path d="M34.141 4.01004L32.7593 5.24582C32.5876 5.40096 32.4845 5.61787 32.4727 5.84894C32.4608 6.08001 32.5411 6.30635 32.6959 6.47828C32.8507 6.6502 33.0675 6.75366 33.2985 6.76594C33.5296 6.77822 33.756 6.69832 33.9282 6.54377L35.31 5.30799C35.3952 5.23124 35.4644 5.13845 35.5138 5.03492C35.5632 4.9314 35.5917 4.81916 35.5977 4.70462C35.6036 4.59009 35.587 4.47549 35.5487 4.36738C35.5104 4.25928 35.4512 4.15977 35.3745 4.07454C35.2977 3.98932 35.2049 3.92005 35.1014 3.87068C34.9979 3.82132 34.8856 3.79283 34.7711 3.78684C34.6566 3.78085 34.542 3.79748 34.4339 3.83577C34.3257 3.87407 34.2262 3.93329 34.141 4.01004Z" fill="#B18133"/>
<path d="M25.2324 2.46095C25.1845 2.35659 25.1165 2.26269 25.0322 2.18461C24.948 2.10654 24.8493 2.04581 24.7416 2.00591C24.6339 1.966 24.5194 1.9477 24.4047 1.95204C24.2899 1.95638 24.1771 1.98328 24.0728 2.03121C23.9684 2.07913 23.8745 2.14715 23.7964 2.23136C23.7184 2.31558 23.6576 2.41434 23.6177 2.52203C23.5371 2.7395 23.5462 2.98008 23.643 3.19085L24.3901 4.80645C24.4871 5.01679 24.6637 5.18002 24.8809 5.26032C25.0982 5.34062 25.3385 5.33142 25.549 5.23475C25.7595 5.13808 25.9231 4.96183 26.0038 4.74469C26.0845 4.52755 26.0757 4.28727 25.9794 4.07658L25.2324 2.46095Z" fill="#B18133"/>
<path d="M32.0497 2.04329C31.8394 1.94571 31.5989 1.93547 31.3811 2.01481C31.1632 2.09415 30.9857 2.25661 30.8874 2.46659L30.1354 4.08005C30.0379 4.29053 30.0281 4.53111 30.108 4.74886C30.1879 4.96661 30.351 5.1437 30.5615 5.24116C30.772 5.33863 31.0126 5.34849 31.2303 5.26858C31.4481 5.18867 31.6252 5.02553 31.7226 4.81505L32.4746 3.20155C32.5229 3.09764 32.5503 2.9852 32.5551 2.87068C32.5599 2.75616 32.5421 2.64182 32.5026 2.53421C32.4631 2.4266 32.4028 2.32784 32.3251 2.2436C32.2474 2.15936 32.1538 2.09129 32.0497 2.04329Z" fill="#B18133"/>
<path d="M36.4407 6.53661L34.6398 7.21497C34.4239 7.29733 34.2494 7.462 34.1548 7.67284C34.0601 7.88369 34.0529 8.12348 34.1349 8.33959C34.2168 8.55571 34.3811 8.73049 34.5918 8.82558C34.8024 8.92066 35.0422 8.92829 35.2585 8.84678L37.0593 8.16842C37.1669 8.12811 37.2654 8.06696 37.3493 7.98848C37.4332 7.90999 37.5007 7.81572 37.5481 7.71107C37.5954 7.60642 37.6217 7.49345 37.6252 7.37863C37.6288 7.26382 37.6097 7.14943 37.569 7.04202C37.5283 6.93461 37.4668 6.8363 37.388 6.75272C37.3092 6.66915 37.2146 6.60196 37.1098 6.555C37.005 6.50804 36.8919 6.48225 36.7771 6.47909C36.6622 6.47593 36.5479 6.49548 36.4407 6.53661Z" fill="#B18133"/>
<path d="M18.4242 7.27675C18.3864 7.38495 18.3702 7.49957 18.3767 7.61402C18.3832 7.72847 18.4122 7.84052 18.4621 7.94373C18.512 8.04695 18.5818 8.1393 18.6674 8.21549C18.7531 8.29169 18.853 8.35023 18.9613 8.38775L20.782 9.02224C20.8902 9.06048 21.0048 9.07701 21.1194 9.07088C21.2339 9.06475 21.3462 9.03608 21.4496 8.98651C21.5531 8.93693 21.6458 8.86744 21.7224 8.782C21.7989 8.69656 21.8579 8.59686 21.8959 8.48859C21.9339 8.38033 21.9501 8.26564 21.9437 8.15109C21.9373 8.03653 21.9084 7.92437 21.8586 7.82102C21.8087 7.71766 21.739 7.62515 21.6534 7.54878C21.5678 7.47241 21.4679 7.41368 21.3596 7.37596L19.5389 6.74147C19.3201 6.66519 19.08 6.67868 18.8711 6.779C18.6622 6.87931 18.5015 7.05828 18.4242 7.27675Z" fill="#B18133"/>
<path d="M22.2639 10.9057C22.2639 11.1378 22.356 11.3603 22.5201 11.5244C22.6842 11.6885 22.9068 11.7807 23.1389 11.7807C23.3709 11.7807 23.5935 11.6885 23.7576 11.5244C23.9217 11.3603 24.0139 11.1378 24.0139 10.9057C24.0139 8.89917 25.8021 7.26696 28 7.26696C30.198 7.26696 31.9862 8.89917 31.9862 10.9057C31.9875 11.1369 32.0803 11.3583 32.2442 11.5213C32.4082 11.6844 32.63 11.7759 32.8612 11.7759C33.0925 11.7759 33.3143 11.6844 33.4783 11.5213C33.6422 11.3583 33.735 11.1369 33.7362 10.9057C33.7362 7.93765 31.1629 5.52271 28 5.52271C24.8371 5.52271 22.2639 7.93765 22.2639 10.9057Z" fill="#B18133"/>
<path d="M55.9999 37.9412C55.9999 32.806 52.6824 26.6038 48.5625 26.6038C44.4426 26.6038 41.125 32.806 41.125 37.9412C41.125 42.1586 43.4462 44.6 47.6875 44.889V48.396C43.6261 48.3766 38.7999 49.101 35.441 51.9936C34.1948 51.8734 32.9402 51.8662 31.6927 51.9719C31.7804 50.4028 32.7839 49.1243 34.924 47.8035C36.6545 46.7351 37.0886 44.7648 36.4982 43.5516C36.0149 42.5585 34.9731 42.1825 33.8447 42.5905C33.0567 42.8758 32.6329 42.6492 32.5677 42.5338C32.5519 42.5053 32.607 42.3882 32.7734 42.2553C33.8793 41.3717 35.73 39.6552 35.699 38.089C35.6941 37.7855 35.6169 37.4876 35.4739 37.2198C35.3308 36.9521 35.1261 36.7224 34.8765 36.5496C33.82 35.7707 32.5132 36.3963 31.4629 36.8987C31.2067 37.021 30.8581 37.1879 30.6109 37.2739C30.609 37.2117 30.6094 37.1351 30.6144 37.0414C30.6875 36.1491 30.5945 35.251 30.34 34.3927C30.1758 33.9021 29.8615 33.4756 29.4416 33.1734C29.0217 32.8712 28.5175 32.7086 28.0002 32.7085C27.4829 32.7085 26.9786 32.871 26.5587 33.1731C26.1387 33.4753 25.8244 33.9017 25.66 34.3923C25.4056 35.2508 25.3126 36.149 25.3857 37.0414C25.3906 37.1351 25.3911 37.2117 25.3891 37.2739C25.142 37.1879 24.7933 37.0209 24.5372 36.8987C23.4868 36.3967 22.1797 35.7707 21.1235 36.5496C20.874 36.7224 20.6692 36.9521 20.5262 37.2198C20.3832 37.4875 20.306 37.7855 20.3011 38.089C20.2701 39.6552 22.1207 41.3717 23.2266 42.2553C23.3931 42.3882 23.4482 42.5053 23.4324 42.5338C23.3674 42.6488 22.9438 42.8753 22.1553 42.5905C21.0281 42.1829 19.9854 42.5585 19.5019 43.5516C18.9115 44.7648 19.3456 46.7351 21.0761 47.8035C23.2159 49.1241 24.2194 50.4024 24.3073 51.9713C23.0595 51.8653 21.8047 51.8725 20.5582 51.9929C17.1992 49.1012 12.3735 48.3769 8.31262 48.3963V44.889C12.5539 44.6 14.8751 42.1586 14.8751 37.9412C14.8751 32.806 11.5575 26.6038 7.43762 26.6038C3.31771 26.6038 0.000183105 32.806 0.000183105 37.9412C0.000183105 42.1586 2.32141 44.6 6.56266 44.889V48.4501C4.5808 48.5529 2.61068 48.8178 0.672021 49.242C0.560419 49.2685 0.455136 49.3167 0.362197 49.384C0.269259 49.4512 0.190492 49.5361 0.130404 49.6338C0.0703163 49.7315 0.0300884 49.8401 0.0120232 49.9533C-0.006042 50.0666 -0.0015897 50.1823 0.0251252 50.2939C0.0518401 50.4054 0.100293 50.5106 0.16771 50.6034C0.235127 50.6962 0.320185 50.7748 0.418013 50.8347C0.515841 50.8945 0.62452 50.9345 0.737826 50.9524C0.851133 50.9702 0.966843 50.9655 1.07833 50.9385C1.19302 50.9109 11.8332 48.4518 18.1657 52.3974C17.5073 52.5479 16.8643 52.7596 16.2453 53.0298C16.0367 53.1302 15.8766 53.3093 15.8001 53.5277C15.7236 53.7461 15.737 53.986 15.8374 54.1945C15.9378 54.4031 16.1169 54.5632 16.3353 54.6397C16.5537 54.7162 16.7936 54.7028 17.0021 54.6024C17.0363 54.5862 20.4646 53.0089 25.9593 53.9305C27.3104 54.157 28.6897 54.157 30.0408 53.9305C35.5161 53.0128 38.94 54.5756 38.9973 54.602C39.2058 54.7024 39.4456 54.716 39.6641 54.6396C39.8825 54.5632 40.0617 54.4031 40.1621 54.1946C40.2626 53.9862 40.2761 53.7463 40.1997 53.5279C40.1233 53.3094 39.9633 53.1303 39.7548 53.0298C39.1359 52.7596 38.493 52.548 37.8346 52.3978C44.1609 48.4597 54.8067 50.9112 54.9222 50.9385C55.0337 50.9655 55.1494 50.9702 55.2627 50.9523C55.376 50.9345 55.4847 50.8945 55.5825 50.8346C55.6804 50.7747 55.7654 50.6961 55.8328 50.6033C55.9002 50.5104 55.9487 50.4052 55.9754 50.2937C56.002 50.1821 56.0065 50.0664 55.9884 49.9531C55.9703 49.8398 55.93 49.7313 55.8699 49.6336C55.8097 49.5359 55.7309 49.451 55.6379 49.3838C55.545 49.3166 55.4397 49.2684 55.328 49.242C53.3894 48.8176 51.4193 48.5526 49.4374 48.4498V44.8891C53.6787 44.6 55.9999 42.1586 55.9999 37.9412ZM7.43766 33.5806C7.20598 33.5803 6.98364 33.6719 6.81955 33.8355C6.65546 33.999 6.56305 34.2211 6.56266 34.4527V36.2719L5.43131 35.1443C5.26777 34.9802 5.04576 34.8878 4.8141 34.8874C4.58244 34.8871 4.36012 34.9787 4.19604 35.1422C4.03197 35.3058 3.93957 35.5278 3.93919 35.7595C3.93881 35.9911 4.03047 36.2134 4.194 36.3775L6.56265 38.7383V43.137C3.32987 42.8848 1.75018 41.1811 1.75018 37.9412C1.75018 33.7126 4.42791 28.348 7.43765 28.348C10.4474 28.348 13.1251 33.7127 13.1251 37.9412C13.1251 41.1811 11.5454 42.8848 8.31265 43.137V41.3547L10.6813 38.9938C10.7625 38.9127 10.827 38.8163 10.8709 38.7101C10.9149 38.604 10.9374 38.4903 10.9374 38.3754C10.9373 38.2606 10.9146 38.1469 10.8705 38.0408C10.8264 37.9347 10.7619 37.8384 10.6805 37.7573C10.5992 37.6762 10.5026 37.612 10.3964 37.5683C10.2902 37.5245 10.1764 37.5022 10.0616 37.5025C9.94672 37.5028 9.83305 37.5258 9.72708 37.5701C9.62111 37.6143 9.52491 37.6791 9.444 37.7606L8.31265 38.8882V34.4528C8.31226 34.2211 8.21986 33.9991 8.05577 33.8355C7.89167 33.6719 7.66934 33.5803 7.43766 33.5806ZM29.9388 52.1832C29.875 52.1933 29.8149 52.1993 29.7507 52.2101C29.4597 52.2589 29.1678 52.2955 28.8751 52.3199V48.4803L31.1597 46.7228C31.2504 46.6525 31.3263 46.5652 31.3832 46.4656C31.4401 46.366 31.4768 46.2562 31.4912 46.1425C31.5057 46.0287 31.4976 45.9133 31.4674 45.8026C31.4372 45.692 31.3855 45.5884 31.3153 45.4978C31.2451 45.4071 31.1577 45.3312 31.0582 45.2743C30.9586 45.2175 30.8488 45.1807 30.7351 45.1663C30.6213 45.1519 30.5058 45.16 30.3952 45.1901C30.2846 45.2203 30.181 45.272 30.0904 45.3422L28.8751 46.2772V43.0018C28.8751 42.7698 28.7829 42.5472 28.6188 42.3831C28.4547 42.219 28.2321 42.1268 28 42.1268C27.768 42.1268 27.5454 42.219 27.3813 42.3831C27.2172 42.5472 27.125 42.7698 27.125 43.0018V46.1958L26.1151 45.3609C26.0269 45.2876 25.9251 45.2324 25.8156 45.1984C25.706 45.1644 25.5909 45.1523 25.4767 45.1628C25.3624 45.1733 25.2514 45.2062 25.1499 45.2596C25.0484 45.313 24.9584 45.3859 24.8851 45.4741C24.8118 45.5623 24.7565 45.664 24.7225 45.7736C24.6885 45.8831 24.6764 45.9983 24.6869 46.1125C24.6975 46.2267 24.7304 46.3377 24.7838 46.4392C24.8372 46.5407 24.9101 46.6307 24.9982 46.704L27.1251 48.4617V52.3199C26.8324 52.2955 26.5406 52.2589 26.2494 52.2101C26.1852 52.1993 26.1251 52.1932 26.0613 52.1831C26.0485 49.1883 23.7701 47.4149 21.9977 46.3208C21.0257 45.7208 20.8833 44.7103 21.0763 44.313C21.1212 44.2201 21.1829 44.0936 21.5576 44.2299C23.2275 44.8342 24.4905 44.2171 24.9579 43.3885C25.1766 42.9671 25.2326 42.48 25.1152 42.02C24.9978 41.56 24.7152 41.1594 24.3213 40.8944C22.8184 39.6935 22.0415 38.5914 22.0509 38.1234C22.0518 38.0796 22.0526 38.034 22.1635 37.9523C22.373 37.7994 23.3589 38.2699 23.7806 38.4713C24.7005 38.9117 25.6524 39.366 26.4436 38.8405C27.2056 38.3347 27.1513 37.2931 27.1336 36.9511C27.0751 36.2777 27.1379 35.5992 27.319 34.948C27.3656 34.804 27.4567 34.6786 27.5791 34.5896C27.7015 34.5006 27.8489 34.4527 28.0002 34.4528C28.1515 34.4528 28.2989 34.5008 28.4213 34.5899C28.5436 34.6789 28.6345 34.8044 28.6811 34.9484C28.8622 35.5995 28.925 36.2778 28.8665 36.9511C28.8488 37.2931 28.7945 38.3347 29.5565 38.8406C30.3488 39.3665 31.2997 38.9117 32.2195 38.4714C32.641 38.2699 33.6277 37.7986 33.8366 37.9523C33.9475 38.034 33.9484 38.0796 33.9492 38.1235C33.9586 38.5914 33.1817 39.6935 31.6789 40.8944C31.285 41.1594 31.0024 41.5601 30.885 42.02C30.7675 42.48 30.8235 42.9671 31.0423 43.3885C31.5097 44.2176 32.7736 44.8342 34.4425 44.2299C34.8178 44.0937 34.8789 44.2201 34.9238 44.313C35.1169 44.7103 34.9744 45.7208 34.0024 46.3208C32.23 47.4149 29.9516 49.1883 29.9388 52.1832ZM48.5625 33.5806C48.3308 33.5803 48.1085 33.6719 47.9444 33.8355C47.7803 33.999 47.6879 34.2211 47.6875 34.4527V38.8882L46.5561 37.7606C46.3925 37.597 46.1706 37.505 45.9392 37.5049C45.7078 37.5047 45.4858 37.5963 45.3219 37.7597C45.1581 37.923 45.0657 38.1447 45.0651 38.3761C45.0645 38.6075 45.1558 38.8297 45.3188 38.9939L47.6875 41.3547V43.137C44.4547 42.8848 42.875 41.1811 42.875 37.9412C42.875 33.7127 45.5527 28.348 48.5625 28.348C51.5722 28.348 54.2499 33.7127 54.2499 37.9412C54.2499 41.1811 52.6702 42.8848 49.4374 43.137V38.7384L51.8061 36.3775C51.9692 36.2134 52.0604 35.9912 52.0598 35.7598C52.0592 35.5284 51.9669 35.3067 51.803 35.1434C51.6391 34.98 51.4171 34.8884 51.1857 34.8886C50.9543 34.8887 50.7324 34.9807 50.5688 35.1443L49.4374 36.2719V34.4528C49.4371 34.2211 49.3447 33.9991 49.1806 33.8355C49.0165 33.6719 48.7941 33.5803 48.5625 33.5806Z" fill="#B18133"/>
<path d="M42.0446 18.5107C41.8765 18.351 41.652 18.2643 41.4202 18.2697C41.1883 18.275 40.9681 18.372 40.8075 18.5393C40.6031 18.7522 35.8184 23.8333 37.0807 30.0815C37.1054 30.2035 37.1558 30.3187 37.2287 30.4196C37.3016 30.5204 37.3952 30.6045 37.5032 30.6662C37.6116 30.7277 37.7317 30.7655 37.8557 30.7773C37.9797 30.789 38.1047 30.7744 38.2227 30.7343C42.7602 29.1805 45.5341 26.7098 46.4674 23.3908C48.2811 16.9407 42.392 9.77816 42.1403 9.47626C42.0271 9.3403 41.8753 9.24185 41.705 9.1939C41.5346 9.14594 41.3538 9.15073 41.1862 9.20762C41.0187 9.26452 40.8723 9.37086 40.7664 9.51261C40.6605 9.65437 40.6001 9.82489 40.593 10.0017C40.4943 12.7015 39.3438 14.5096 36.6216 16.2432C34.9156 17.329 33.0033 18.664 31.9023 20.7685C29.5716 25.2228 32.404 30.1876 35.8318 33.3486C35.9159 33.4266 36.0145 33.4873 36.122 33.5273C36.2295 33.5672 36.3439 33.5856 36.4585 33.5813C36.5731 33.5771 36.6857 33.5503 36.79 33.5025C36.8943 33.4547 36.9881 33.3869 37.0662 33.3028C37.1442 33.2188 37.2049 33.1202 37.2449 33.0127C37.2848 32.9051 37.3032 32.7908 37.2989 32.6762C37.2947 32.5616 37.2679 32.4489 37.2201 32.3446C37.1723 32.2404 37.1045 32.1465 37.0204 32.0685C34.2021 29.4696 31.5771 25.1619 33.454 21.5751C34.3557 19.8517 36.048 18.6781 37.5637 17.7132C40.0113 16.1546 41.4247 14.4628 42.0177 12.2957C43.5558 14.6557 45.8695 19.0631 44.7811 22.9245C44.0781 25.4186 42.0179 27.3634 38.6521 28.7146C38.256 23.8328 42.0104 19.81 42.0734 19.7431C42.1527 19.6604 42.2148 19.5629 42.2563 19.4561C42.2978 19.3494 42.3177 19.2354 42.3151 19.1209C42.3124 19.0064 42.2871 18.8936 42.2407 18.7889C42.1943 18.6842 42.1276 18.5896 42.0446 18.5107Z" fill="#B18133"/>
<path d="M15.407 10.0021C15.4 9.82527 15.3395 9.65476 15.2336 9.513C15.1278 9.37124 14.9814 9.26488 14.8139 9.20795C14.6464 9.15101 14.4655 9.14617 14.2952 9.19405C14.1249 9.24194 13.973 9.3403 13.8597 9.47619C13.6081 9.77809 7.71895 16.9406 9.53261 23.3908C10.4659 26.7097 13.2398 29.1804 17.7773 30.7343C17.8951 30.7748 18.0201 30.7897 18.1441 30.778C18.2681 30.7663 18.3881 30.7283 18.4962 30.6665C18.6043 30.6047 18.698 30.5206 18.7709 30.4197C18.8439 30.3188 18.8945 30.2035 18.9194 30.0815C20.1817 23.8332 15.397 18.7521 15.1925 18.5392C15.0326 18.3727 14.8133 18.2762 14.5825 18.2709C14.3516 18.2656 14.1281 18.352 13.9607 18.511C13.7934 18.67 13.6958 18.8889 13.6893 19.1197C13.6828 19.3505 13.768 19.5744 13.9262 19.7426C13.967 19.7856 17.7453 23.8183 17.348 28.7145C13.9821 27.3634 11.922 25.4186 11.2189 22.9245C10.1305 19.063 12.4443 14.6556 13.9821 12.2956C14.5752 14.4627 15.9887 16.1545 18.4364 17.7131C19.952 18.678 21.6443 19.8516 22.546 21.575C24.4229 25.1618 21.7979 29.4695 18.9796 32.0684C18.8106 32.2262 18.711 32.4446 18.7028 32.6757C18.6945 32.9068 18.7782 33.1317 18.9356 33.3012C19.0929 33.4706 19.311 33.5708 19.5421 33.5796C19.7732 33.5885 19.9983 33.5054 20.1682 33.3485C23.596 30.1875 26.4284 25.2227 24.0978 20.7684C22.9968 18.664 21.0844 17.329 19.3785 16.2431C16.656 14.5095 15.5055 12.7014 15.407 10.0021Z" fill="#B18133"/>
</svg>
