<svg width="56" height="56" viewBox="0 0 56 56" fill="none" xmlns="http://www.w3.org/2000/svg">
<g clip-path="url(#clip0_78_870)">
<path d="M20.4244 40.0408C15.0886 40.839 11.4019 42.5449 11.4019 44.5207C11.4019 47.2611 18.4938 49.4826 27.2422 49.4826C35.9905 49.4826 43.0824 47.2611 43.0824 44.5207C43.0824 42.5449 39.3957 40.839 34.0599 40.0408" stroke="#B18133" stroke-width="2" stroke-miterlimit="10" stroke-linecap="round" stroke-linejoin="round"/>
<path d="M16.1504 25.5065L8.26465 17.6208" stroke="#B18133" stroke-width="2" stroke-miterlimit="10" stroke-linecap="round" stroke-linejoin="round"/>
<path d="M8.43994 21.3826H12.0262" stroke="#B18133" stroke-width="2" stroke-miterlimit="10" stroke-linecap="round" stroke-linejoin="round"/>
<path d="M12.0262 17.7961V21.3825" stroke="#B18133" stroke-width="2" stroke-miterlimit="10" stroke-linecap="round" stroke-linejoin="round"/>
<path d="M45.0559 25.763C44.5955 26.0889 44.1558 26.4573 43.7435 26.8697C40.9054 29.7077 40.1132 33.8162 41.3654 37.3642C44.9134 38.6164 49.0219 37.8242 51.86 34.9862C54.6017 32.2445 55.4341 28.317 54.3584 24.8548C54.2867 24.6236 54.1061 24.4431 53.8749 24.3712C52.1457 23.834 50.3004 23.7728 48.5448 24.1877" stroke="#B18133" stroke-width="2" stroke-miterlimit="10" stroke-linecap="round" stroke-linejoin="round"/>
<path d="M41.3654 37.3641L49.251 29.4785" stroke="#B18133" stroke-width="2" stroke-miterlimit="10" stroke-linecap="round" stroke-linejoin="round"/>
<path d="M49.0758 33.2402H45.4894" stroke="#B18133" stroke-width="2" stroke-miterlimit="10" stroke-linecap="round" stroke-linejoin="round"/>
<path d="M45.4894 29.6538V33.2401" stroke="#B18133" stroke-width="2" stroke-miterlimit="10" stroke-linecap="round" stroke-linejoin="round"/>
<path d="M36.4751 0.946066L37.6745 3.13904C37.6967 3.17961 37.73 3.21297 37.7706 3.23518L39.9636 4.43458C40.1314 4.52635 40.1314 4.7673 39.9636 4.85907L37.7706 6.05847C37.73 6.08068 37.6967 6.11404 37.6745 6.15461L36.4751 8.34758C36.3833 8.51536 36.1423 8.51536 36.0506 8.34758L34.8512 6.15461C34.829 6.11404 34.7956 6.08068 34.755 6.05847L32.5621 4.85907C32.3943 4.7673 32.3943 4.52635 32.5621 4.43458L34.755 3.23518C34.7956 3.21297 34.829 3.17961 34.8512 3.13904L36.0506 0.946066C36.1423 0.778395 36.3833 0.778395 36.4751 0.946066Z" stroke="#B18133" stroke-width="2" stroke-miterlimit="10" stroke-linecap="round" stroke-linejoin="round"/>
<path d="M40.3937 12.9819L42.1129 16.1256C42.1447 16.1837 42.1925 16.2315 42.2507 16.2634L45.3944 17.9826C45.6349 18.1142 45.6349 18.4595 45.3944 18.5911L42.2507 20.3104C42.1925 20.3422 42.1447 20.39 42.1129 20.4482L40.3937 23.5918C40.2621 23.8323 39.9168 23.8323 39.7852 23.5918L38.0659 20.4482C38.0341 20.39 37.9863 20.3422 37.9281 20.3104L34.7846 18.5911C34.5441 18.4595 34.5441 18.1142 34.7846 17.9826L37.9281 16.2634C37.9863 16.2315 38.0341 16.1837 38.0659 16.1256L39.7852 12.9819C39.9168 12.7414 40.2621 12.7414 40.3937 12.9819Z" stroke="#B18133" stroke-width="2" stroke-miterlimit="10" stroke-linecap="round" stroke-linejoin="round"/>
<path d="M3.64091 12.5136C3.4098 12.5854 3.22922 12.7659 3.15736 12.9971C2.08166 16.4595 2.91411 20.3868 5.65582 23.1285C8.49388 25.9666 12.6023 26.7588 16.1503 25.5066C17.4026 21.9585 16.6104 17.8501 13.7723 15.012C11.0306 12.2703 7.10318 11.438 3.64091 12.5136Z" stroke="#B18133" stroke-width="2" stroke-miterlimit="10" stroke-linecap="round" stroke-linejoin="round"/>
<path d="M22.1652 29.1636L20.4576 32.0384C17.3328 37.2987 21.1239 43.9601 27.2422 43.9601C33.3606 43.9601 37.1516 37.2988 34.027 32.0384L27.8628 21.6612C27.5831 21.1904 26.9014 21.1904 26.6217 21.6612L24.1237 25.8665" stroke="#B18133" stroke-width="2" stroke-miterlimit="10" stroke-linecap="round" stroke-linejoin="round"/>
<path d="M27.2422 16.2658C28.8366 16.2658 30.1292 14.9732 30.1292 13.3788C30.1292 11.7843 28.8366 10.4917 27.2422 10.4917C25.6477 10.4917 24.3551 11.7843 24.3551 13.3788C24.3551 14.9732 25.6477 16.2658 27.2422 16.2658Z" stroke="#B18133" stroke-width="2" stroke-miterlimit="10" stroke-linecap="round" stroke-linejoin="round"/>
<path d="M19.533 34.3364C15.5741 34.8374 12.019 35.7142 9.11591 36.8646" stroke="#B18133" stroke-width="2" stroke-miterlimit="10" stroke-linecap="round" stroke-linejoin="round"/>
<path d="M40.8946 35.4412C39.0528 34.9768 37.0597 34.6032 34.9515 34.3364" stroke="#B18133" stroke-width="2" stroke-miterlimit="10" stroke-linecap="round" stroke-linejoin="round"/>
<path d="M5.6735 38.5399C2.84222 40.2453 1.18683 42.3038 1.18683 44.5207C1.18683 50.4074 12.8522 55.1796 27.2421 55.1796C41.6321 55.1796 53.2974 50.4074 53.2974 44.5207C53.2974 41.9003 50.9846 39.5012 47.1502 37.645" stroke="#B18133" stroke-width="2" stroke-miterlimit="10" stroke-linecap="round" stroke-linejoin="round"/>
</g>
<defs>
<clipPath id="clip0_78_870">
<rect width="56" height="56" fill="white"/>
</clipPath>
</defs>
</svg>
