<svg width="14" height="18" viewBox="0 0 14 18" fill="none" xmlns="http://www.w3.org/2000/svg">
<path d="M7 2.23623C5.60761 2.23623 4.27225 2.784 3.28769 3.75903C2.30312 4.73407 1.75 6.0565 1.75 7.43541C1.75 9.56114 3.0865 11.6118 4.5535 13.2006C5.3036 14.0099 6.12207 14.7543 7 15.4258C7.131 15.3263 7.28475 15.205 7.46125 15.0619C8.1661 14.4887 8.82948 13.8672 9.4465 13.2021C10.9135 11.6118 12.25 9.56188 12.25 7.43541C12.25 6.0565 11.6969 4.73407 10.7123 3.75903C9.72774 2.784 8.39239 2.23623 7 2.23623ZM7 17.25L6.57475 16.9603L6.5725 16.9588L6.568 16.9551L6.553 16.9447L6.49675 16.9054L6.29425 16.759C5.26815 15.9953 4.31491 15.1401 3.4465 14.204C1.9135 12.5418 0.25 10.136 0.25 7.43467C0.25 5.66179 0.961159 3.96151 2.22703 2.7079C3.4929 1.45428 5.20979 0.75 7 0.75C8.79021 0.75 10.5071 1.45428 11.773 2.7079C13.0388 3.96151 13.75 5.66179 13.75 7.43467C13.75 10.136 12.0865 12.5425 10.5535 14.2025C9.68533 15.1386 8.73234 15.9938 7.7065 16.7576C7.62104 16.8208 7.53478 16.8829 7.44775 16.944L7.432 16.9544L7.4275 16.9581L7.426 16.9588L7 17.25ZM7 5.94993C6.60217 5.94993 6.22064 6.10644 5.93934 6.38502C5.65804 6.6636 5.5 7.04144 5.5 7.43541C5.5 7.82939 5.65804 8.20723 5.93934 8.48581C6.22064 8.76439 6.60217 8.9209 7 8.9209C7.39782 8.9209 7.77935 8.76439 8.06066 8.48581C8.34196 8.20723 8.5 7.82939 8.5 7.43541C8.5 7.04144 8.34196 6.6636 8.06066 6.38502C7.77935 6.10644 7.39782 5.94993 7 5.94993ZM4 7.43541C4 6.64746 4.31607 5.89179 4.87868 5.33462C5.44129 4.77746 6.20435 4.46445 7 4.46445C7.79565 4.46445 8.55871 4.77746 9.12132 5.33462C9.68393 5.89179 10 6.64746 10 7.43541C10 8.22336 9.68393 8.97904 9.12132 9.5362C8.55871 10.0934 7.79565 10.4064 7 10.4064C6.20435 10.4064 5.44129 10.0934 4.87868 9.5362C4.31607 8.97904 4 8.22336 4 7.43541Z" fill="white" fill-opacity="0.71"/>
</svg>
