<svg width="16" height="15" viewBox="0 0 16 15" fill="none" xmlns="http://www.w3.org/2000/svg">
<path fill-rule="evenodd" clip-rule="evenodd" d="M2.29977 1.53198C3.21252 0.624484 4.71552 0.785734 5.47977 1.80723L6.42627 3.07023C7.04877 3.90123 6.99327 5.06223 6.25452 5.79648L6.07602 5.97498C6.05578 6.04991 6.05372 6.1286 6.07002 6.20448C6.11727 6.51048 6.37302 7.15848 7.44402 8.22348C8.51502 9.28848 9.16752 9.54348 9.47802 9.59148C9.55626 9.60722 9.63706 9.60491 9.71427 9.58473L10.0203 9.28023C10.6773 8.62773 11.6853 8.50548 12.4983 8.94723L13.9308 9.72723C15.1585 10.3932 15.4683 12.0612 14.4633 13.061L13.3975 14.12C13.0615 14.4537 12.61 14.732 12.0595 14.7837C10.702 14.9105 7.53927 14.7485 4.21452 11.4432C1.11177 8.35773 0.51627 5.66673 0.44052 4.34073C0.40302 3.67023 0.71952 3.10323 1.12302 2.70273L2.29977 1.53198ZM4.57977 2.48148C4.19952 1.97373 3.49152 1.93323 3.09252 2.32998L1.91502 3.49998C1.66752 3.74598 1.54902 4.01748 1.56402 4.27698C1.62402 5.33073 2.10402 7.75848 5.00802 10.646C8.05452 13.6745 10.8678 13.7652 11.9553 13.6632C12.1773 13.643 12.3978 13.5275 12.604 13.3227L13.669 12.263C14.1025 11.8325 14.0073 11.048 13.3938 10.715L11.9613 9.93573C11.5653 9.72123 11.1018 9.79173 10.8138 10.0782L10.4725 10.418L10.075 10.019C10.4725 10.418 10.4718 10.4187 10.471 10.4187L10.4703 10.4202L10.468 10.4225L10.4628 10.427L10.4515 10.4375C10.4199 10.4669 10.3857 10.4935 10.3495 10.517C10.2895 10.5567 10.21 10.601 10.1103 10.6377C9.90777 10.7135 9.63927 10.754 9.30777 10.703C8.65752 10.6032 7.79577 10.16 6.65052 9.02148C5.50602 7.88298 5.05902 7.02648 4.95852 6.37698C4.90677 6.04548 4.94802 5.77698 5.02452 5.57448C5.06662 5.46054 5.1269 5.35416 5.20302 5.25948L5.22702 5.23323L5.23752 5.22198L5.24202 5.21748L5.24427 5.21523L5.24577 5.21373L5.46177 4.99923C5.78277 4.67898 5.82777 4.14873 5.52552 3.74448L4.57977 2.48148Z" fill="white" fill-opacity="0.71"/>
</svg>
