<svg width="71" height="71" viewBox="0 0 71 71" fill="none" xmlns="http://www.w3.org/2000/svg">
<rect x="0.5" y="0.5" width="70" height="70" rx="35" stroke="#AC813C" stroke-opacity="0.6"/>
<path d="M36.4999 36.5V48.2M36.4999 36.5C44.0385 36.5 50.1497 30.4219 50.1497 22.9241C50.1497 22.7291 50.1458 22.5341 50.138 22.3391C50.0542 20.3891 50.0133 19.4141 48.6912 18.207C47.3691 17 45.9085 17 42.9816 17H30.0182C27.0932 17 25.6288 17 24.3086 18.209C22.9885 19.4141 22.9456 20.3891 22.8617 22.3372C22.8539 22.5322 22.85 22.7278 22.85 22.9241C22.85 30.4219 28.9613 36.5 36.4999 36.5ZM36.4999 48.2C33.2356 48.2 30.3965 50.1734 28.9301 53.0847C28.2281 54.4751 29.2343 56 30.5681 56H42.4298C43.7655 56 44.7698 54.4751 44.0697 53.0847C42.6033 50.1734 39.7642 48.2 36.4999 48.2ZM22.85 22.85H20.8708C18.9462 22.85 17.9849 22.85 17.3901 23.5715C16.7954 24.2949 16.9709 25.1042 17.3199 26.7227C17.9829 29.8115 19.4278 32.5279 21.3856 34.55M50.1497 22.85H52.129C54.0536 22.85 55.0149 22.85 55.6097 23.5715C56.2044 24.2949 56.0289 25.1042 55.6818 26.7227C55.0149 29.8115 53.572 32.5279 51.6122 34.55" stroke="#AC813C" stroke-width="2" stroke-linecap="round"/>
</svg>
