<svg width="56" height="56" viewBox="0 0 56 56" fill="none" xmlns="http://www.w3.org/2000/svg">
<path d="M10.545 52.5392H4.55755C3.95226 52.5392 3.46161 52.0485 3.46161 51.4432V24.8901" stroke="#B18133" stroke-width="2" stroke-miterlimit="10" stroke-linecap="round" stroke-linejoin="round"/>
<path d="M52.5385 24.8901V51.4432C52.5385 52.0485 52.0478 52.5392 51.4426 52.5392H20.3705" stroke="#B18133" stroke-width="2" stroke-miterlimit="10" stroke-linecap="round" stroke-linejoin="round"/>
<path d="M28.7733 52.32V35.1812C28.7733 34.4635 29.3551 33.8817 30.0728 33.8817H45.5288C46.2465 33.8817 46.8283 34.4635 46.8283 35.1812V52.32" stroke="#B18133" stroke-width="2" stroke-miterlimit="10" stroke-linecap="round" stroke-linejoin="round"/>
<path d="M11.6581 43.1009H19.2576C20.7677 43.1009 21.9919 41.8767 21.9919 40.3665V33.2725C21.9919 31.7623 20.7677 30.5381 19.2576 30.5381H11.6581C10.1479 30.5381 8.92371 31.7623 8.92371 33.2725V40.3665C8.92371 41.8767 10.1478 43.1009 11.6581 43.1009Z" stroke="#B18133" stroke-width="2" stroke-miterlimit="10" stroke-linecap="round" stroke-linejoin="round"/>
<path d="M28.9301 39.427H46.6714" stroke="#B18133" stroke-width="2" stroke-miterlimit="10" stroke-linecap="round" stroke-linejoin="round"/>
<path d="M37.8008 39.6531V52.32" stroke="#B18133" stroke-width="2" stroke-miterlimit="10" stroke-linecap="round" stroke-linejoin="round"/>
<path d="M12.6593 12.2014H2.18969C1.58473 12.2014 1.09375 12.6913 1.09375 13.2974V23.6845C1.09375 24.2905 1.58473 24.7804 2.18969 24.7804H53.8103C54.4153 24.7804 54.9062 24.2905 54.9062 23.6845V13.2974C54.9062 12.6913 54.4153 12.2014 53.8103 12.2014H43.534" stroke="#B18133" stroke-width="2" stroke-miterlimit="10" stroke-linecap="round" stroke-linejoin="round"/>
<circle cx="15.4578" cy="52.5392" r="1.09375" fill="#B18133"/>
<path d="M33.8595 11.7953C33.8597 11.7952 33.86 11.795 33.8602 11.7949C35.1626 10.9067 36.6299 10.2414 38.206 9.85466C39.2355 9.60277 40.3103 9.46802 41.4168 9.46802H42.3601C42.8791 9.46802 43.3026 9.89152 43.3026 10.4114V11.3539C43.3026 18.7689 37.2912 24.7804 29.8761 24.7804L27.9966 24.7805L30.6974 22.0797C33.4927 19.2842 34.5465 15.4069 33.8595 11.7953Z" stroke="#B18133" stroke-width="2" stroke-miterlimit="10" stroke-linecap="round" stroke-linejoin="round"/>
<path d="M25.2957 5.82733L27.4259 3.69715C27.741 3.38204 28.252 3.38204 28.5671 3.69715L30.6973 5.82733C31.1583 6.28835 31.5702 6.77966 31.9365 7.29351C32.9148 8.66605 33.5569 10.2045 33.8595 11.7954C34.5466 15.4068 33.4928 19.2843 30.6973 22.0798L27.9965 24.7806L25.2957 22.0798C20.8077 17.5918 20.8077 10.3153 25.2957 5.82733Z" stroke="#B18133" stroke-width="2" stroke-miterlimit="10" stroke-linecap="round" stroke-linejoin="round"/>
<path d="M22.1331 11.7953C22.1329 11.7952 22.1327 11.795 22.1325 11.7949C20.83 10.9067 19.3628 10.2414 17.7867 9.85466H17.7865C16.757 9.60277 15.6823 9.46802 14.5758 9.46802H13.6325C13.1135 9.46802 12.69 9.89152 12.69 10.4114V11.3539C12.69 18.7689 18.7015 24.7804 26.1165 24.7804L27.9961 24.7805L25.2953 22.0797C22.4998 19.2842 21.446 15.4069 22.1331 11.7953Z" stroke="#B18133" stroke-width="2" stroke-miterlimit="10" stroke-linecap="round" stroke-linejoin="round"/>
</svg>
