<svg width="71" height="71" viewBox="0 0 71 71" fill="none" xmlns="http://www.w3.org/2000/svg">
<rect x="0.5" y="0.5" width="70" height="70" rx="35" stroke="#AC813C" stroke-opacity="0.6"/>
<path d="M27.875 45.25V43.625C27.875 41.4701 28.731 39.4035 30.2548 37.8798C31.7785 36.356 33.8451 35.5 36 35.5M36 35.5C38.1549 35.5 40.2215 36.356 41.7452 37.8798C43.269 39.4035 44.125 41.4701 44.125 43.625V45.25M36 35.5C37.2929 35.5 38.5329 34.9864 39.4471 34.0721C40.3614 33.1579 40.875 31.9179 40.875 30.625C40.875 29.3321 40.3614 28.0921 39.4471 27.1779C38.5329 26.2636 37.2929 25.75 36 25.75C34.7071 25.75 33.4671 26.2636 32.5529 27.1779C31.6386 28.0921 31.125 29.3321 31.125 30.625C31.125 31.9179 31.6386 33.1579 32.5529 34.0721C33.4671 34.9864 34.7071 35.5 36 35.5ZM18.125 45.25V43.625C18.125 42.3321 18.6386 41.0921 19.5529 40.1779C20.4671 39.2636 21.7071 38.75 23 38.75M23 38.75C23.862 38.75 24.6886 38.4076 25.2981 37.7981C25.9076 37.1886 26.25 36.362 26.25 35.5C26.25 34.638 25.9076 33.8114 25.2981 33.2019C24.6886 32.5924 23.862 32.25 23 32.25C22.138 32.25 21.3114 32.5924 20.7019 33.2019C20.0924 33.8114 19.75 34.638 19.75 35.5C19.75 36.362 20.0924 37.1886 20.7019 37.7981C21.3114 38.4076 22.138 38.75 23 38.75ZM53.875 45.25V43.625C53.875 42.3321 53.3614 41.0921 52.4471 40.1779C51.5329 39.2636 50.2929 38.75 49 38.75M49 38.75C49.862 38.75 50.6886 38.4076 51.2981 37.7981C51.9076 37.1886 52.25 36.362 52.25 35.5C52.25 34.638 51.9076 33.8114 51.2981 33.2019C50.6886 32.5924 49.862 32.25 49 32.25C48.138 32.25 47.3114 32.5924 46.7019 33.2019C46.0924 33.8114 45.75 34.638 45.75 35.5C45.75 36.362 46.0924 37.1886 46.7019 37.7981C47.3114 38.4076 48.138 38.75 49 38.75Z" stroke="#AC813C" stroke-width="1.5" stroke-linecap="round" stroke-linejoin="round"/>
</svg>
