<svg width="71" height="71" viewBox="0 0 71 71" fill="none" xmlns="http://www.w3.org/2000/svg">
<rect x="0.5" y="0.5" width="70" height="70" rx="35" stroke="#AC813C" stroke-opacity="0.6"/>
<path d="M46.7812 20.4688H23.2188C21.4238 20.4688 19.9688 21.9238 19.9688 23.7188V47.2812C19.9688 49.0762 21.4238 50.5312 23.2188 50.5312H46.7812C48.5762 50.5312 50.0312 49.0762 50.0312 47.2812V23.7188C50.0312 21.9238 48.5762 20.4688 46.7812 20.4688Z" stroke="#AC813C" stroke-width="2" stroke-linecap="round" stroke-linejoin="round"/>
<path d="M42.1094 31.8438C41.1936 31.8438 40.3152 31.4799 39.6676 30.8324C39.0201 30.1848 38.6563 29.3065 38.6563 28.3906C38.6563 27.4748 38.2924 26.5965 37.6449 25.9489C36.9973 25.3013 36.119 24.9375 35.2031 24.9375H34.7969C33.881 24.9375 33.0027 25.3013 32.3551 25.9489C31.7076 26.5965 31.3438 27.4748 31.3438 28.3906C31.3438 29.3065 30.9799 30.1848 30.3324 30.8324C29.6848 31.4799 28.8065 31.8438 27.8906 31.8438C26.9748 31.8438 26.0965 32.2076 25.4489 32.8551C24.8013 33.5027 24.4375 34.381 24.4375 35.2969V35.7031C24.4375 36.619 24.8013 37.4973 25.4489 38.1449C26.0965 38.7924 26.9748 39.1563 27.8906 39.1563C28.8065 39.1563 29.6848 39.5201 30.3324 40.1676C30.9799 40.8152 31.3438 41.6936 31.3438 42.6094C31.3438 43.5252 31.7076 44.4035 32.3551 45.0511C33.0027 45.6987 33.881 46.0625 34.7969 46.0625H35.2031C36.119 46.0625 36.9973 45.6987 37.6449 45.0511C38.2924 44.4035 38.6563 43.5252 38.6563 42.6094C38.6563 41.6936 39.0201 40.8152 39.6676 40.1676C40.3152 39.5201 41.1936 39.1563 42.1094 39.1563C43.0252 39.1563 43.9035 38.7924 44.5511 38.1449C45.1987 37.4973 45.5625 36.619 45.5625 35.7031V35.2969C45.5625 34.381 45.1987 33.5027 44.5511 32.8551C43.9035 32.2076 43.0252 31.8438 42.1094 31.8438Z" stroke="#AC813C" stroke-width="2" stroke-linecap="round" stroke-linejoin="round"/>
<path d="M42.6131 37.9416C41.9656 37.294 41.6019 36.4158 41.6019 35.5C41.6019 34.5843 41.9656 33.706 42.6131 33.0584C43.2606 32.4109 43.6244 31.5326 43.6244 30.6169C43.6244 29.7011 43.2606 28.8229 42.6131 28.1753L42.3255 27.8877C41.6779 27.2402 40.7997 26.8765 39.8839 26.8765C38.9682 26.8765 38.09 27.2402 37.4424 27.8877C37.1217 28.2084 36.741 28.4628 36.322 28.6364C35.903 28.81 35.4539 28.8993 35.0004 28.8993C34.5469 28.8993 34.0978 28.81 33.6788 28.6364C33.2598 28.4628 32.8791 28.2084 32.5584 27.8877C31.9109 27.2402 31.0326 26.8765 30.1169 26.8765C29.2011 26.8765 28.3229 27.2402 27.6753 27.8877L27.3877 28.1745C26.7402 28.8221 26.3765 29.7003 26.3765 30.6161C26.3765 31.5318 26.7402 32.4101 27.3877 33.0576C27.7084 33.3783 27.9628 33.759 28.1364 34.178C28.31 34.597 28.3993 35.0461 28.3993 35.4996C28.3993 35.9531 28.31 36.4022 28.1364 36.8212C27.9628 37.2402 27.7084 37.6209 27.3877 37.9416C26.7402 38.5891 26.3765 39.4674 26.3765 40.3831C26.3765 41.2989 26.7402 42.1771 27.3877 42.8247L27.6745 43.1123C28.3221 43.7598 29.2003 44.1236 30.1161 44.1236C31.0318 44.1236 31.9101 43.7598 32.5576 43.1123C32.8783 42.7916 33.259 42.5372 33.678 42.3636C34.097 42.19 34.5461 42.1007 34.9996 42.1007C35.4531 42.1007 35.9022 42.19 36.3212 42.3636C36.7402 42.5372 37.1209 42.7916 37.4416 43.1123C38.0891 43.7598 38.9674 44.1236 39.8831 44.1236C40.7989 44.1236 41.6771 43.7598 42.3247 43.1123L42.6123 42.8255C43.2598 42.1779 43.6236 41.2997 43.6236 40.3839C43.6236 39.4682 43.2598 38.59 42.6123 37.9424" stroke="#AC813C" stroke-width="2" stroke-linecap="round" stroke-linejoin="round"/>
</svg>
