<svg width="61" height="56" viewBox="0 0 61 56" fill="none" xmlns="http://www.w3.org/2000/svg">
<path d="M26.2538 17.3262C26.0639 17.3265 25.8775 17.2786 25.7153 17.1877C25.5532 17.0968 25.4216 16.9665 25.3351 16.8112C24.1796 14.7015 22.6815 12.7654 20.8921 11.0691C20.7975 10.9804 20.7228 10.8754 20.6724 10.7602C20.6219 10.645 20.5967 10.5218 20.5981 10.3976C20.5996 10.2734 20.6276 10.1507 20.6807 10.0365C20.7338 9.9223 20.8109 9.81881 20.9075 9.73194C21.1027 9.5565 21.3658 9.45943 21.639 9.46209C21.7743 9.46341 21.9079 9.48917 22.0323 9.5379C22.1567 9.58663 22.2695 9.65738 22.3641 9.74611C24.2991 11.5794 25.9199 13.6716 27.1713 15.9512C27.2515 16.0953 27.29 16.256 27.2832 16.4177C27.2764 16.5794 27.2245 16.7368 27.1324 16.8748C27.0403 17.0128 26.9112 17.1268 26.7573 17.2058C26.6035 17.2849 26.4301 17.3263 26.2538 17.3262Z" fill="#B18133"/>
<path d="M20.1921 13.766C20.0078 13.7656 19.827 13.7198 19.6685 13.6333C19.5101 13.5469 19.3798 13.423 19.2914 13.2746L18.0047 11.1046L15.641 9.92336C15.4801 9.84163 15.346 9.72184 15.2526 9.57643C15.1592 9.43101 15.1099 9.26529 15.1099 9.09648C15.1099 8.92768 15.1592 8.76195 15.2526 8.61654C15.346 8.47113 15.4801 8.35133 15.641 8.26961L18.0047 7.08836L19.2914 4.9184C19.3798 4.76997 19.5101 4.64607 19.6685 4.55963C19.827 4.47319 20.0078 4.42739 20.1921 4.427C20.3764 4.42739 20.5572 4.47319 20.7156 4.55963C20.8741 4.64607 21.0043 4.76997 21.0928 4.9184L22.3937 7.073L24.7574 8.25425C24.9182 8.33597 25.0524 8.45577 25.1457 8.60118C25.2391 8.7466 25.2884 8.91232 25.2884 9.08113C25.2884 9.24993 25.2391 9.41566 25.1457 9.56107C25.0524 9.70648 24.9182 9.82628 24.7574 9.908L22.3937 11.1082L21.1005 13.2781C21.0109 13.4269 20.8792 13.5508 20.7193 13.6367C20.5595 13.7225 20.3773 13.7672 20.1921 13.766ZM18.2762 9.08821L19.2528 9.57843C19.4255 9.66515 19.5675 9.79552 19.662 9.95407L20.1959 10.8506L20.7299 9.95407C20.825 9.79591 20.9668 9.66568 21.1391 9.57843L22.1157 9.08821L21.1391 8.598C20.9631 8.51255 20.8178 8.38207 20.7209 8.22236L20.1921 7.32815L19.6581 8.22472C19.5636 8.38327 19.4216 8.51364 19.2489 8.60036L18.2762 9.08821Z" fill="#B18133"/>
<path d="M34.7462 17.3262C34.5699 17.3263 34.3965 17.2849 34.2427 17.2058C34.0888 17.1268 33.9597 17.0128 33.8676 16.8748C33.7755 16.7368 33.7236 16.5794 33.7168 16.4177C33.71 16.256 33.7485 16.0953 33.8287 15.9512C35.0797 13.6717 36.7001 11.5795 38.6346 9.74611C38.7293 9.65738 38.842 9.58663 38.9664 9.5379C39.0908 9.48917 39.2245 9.46341 39.3597 9.46209C39.495 9.46077 39.6292 9.48393 39.7547 9.53023C39.8802 9.57653 39.9945 9.64507 40.0912 9.73194C40.1878 9.81881 40.2649 9.9223 40.318 10.0365C40.3711 10.1507 40.3991 10.2734 40.4006 10.3976C40.402 10.5218 40.3768 10.645 40.3264 10.7602C40.2759 10.8754 40.2013 10.9804 40.1066 11.0691C38.3172 12.7654 36.8191 14.7015 35.6636 16.8112C35.5772 16.9663 35.4459 17.0965 35.284 17.1874C35.1221 17.2783 34.9359 17.3263 34.7462 17.3262Z" fill="#B18133"/>
<path d="M40.8079 13.766C40.6236 13.7656 40.4428 13.7198 40.2844 13.6333C40.1259 13.5469 39.9957 13.423 39.9072 13.2746L38.6063 11.1082L36.2426 9.92691C36.0817 9.84518 35.9476 9.72539 35.8542 9.57998C35.7609 9.43456 35.7116 9.26884 35.7116 9.10003C35.7116 8.93123 35.7609 8.7655 35.8542 8.62009C35.9476 8.47468 36.0817 8.35488 36.2426 8.27316L38.6063 7.09191L39.8931 4.92195C39.9821 4.77425 40.1126 4.65113 40.271 4.5654C40.4294 4.47966 40.6099 4.43445 40.7938 4.43445C40.9776 4.43445 41.1582 4.47966 41.3166 4.5654C41.475 4.65113 41.6054 4.77425 41.6945 4.92195L42.9812 7.09191L45.3449 8.27316C45.5058 8.35488 45.6399 8.47468 45.7333 8.62009C45.8267 8.7655 45.8759 8.93123 45.8759 9.10003C45.8759 9.26884 45.8267 9.43456 45.7333 9.57998C45.6399 9.72539 45.5058 9.84518 45.3449 9.92691L42.9812 11.1082L41.6945 13.2781C41.6067 13.424 41.4784 13.5459 41.3227 13.6316C41.167 13.7173 40.9894 13.7636 40.8079 13.766ZM38.8881 9.08822L39.8648 9.57844C40.037 9.66569 40.1789 9.79592 40.2739 9.95408L40.8079 10.8506L41.3419 9.95408C41.4364 9.79552 41.5784 9.66516 41.7511 9.57844L42.7238 9.08822L41.7472 8.598C41.5745 8.51128 41.4325 8.38092 41.338 8.22236L40.8079 7.32816L40.2791 8.22236C40.1846 8.38092 40.0426 8.51128 39.8699 8.598L38.8881 9.08822Z" fill="#B18133"/>
<path d="M33.875 8.56252C33.7771 8.56281 33.6795 8.55008 33.5855 8.52472L30.4974 7.69785L27.4093 8.52472C27.2321 8.57216 27.0443 8.575 26.8656 8.53296C26.6868 8.49091 26.5237 8.40553 26.3932 8.28574C26.2627 8.16595 26.1697 8.01616 26.1239 7.85205C26.0781 7.68795 26.0812 7.51555 26.1328 7.35292L27.0336 4.51792L26.1328 1.68292C26.0818 1.52027 26.0793 1.34802 26.1256 1.18418C26.1719 1.02034 26.2653 0.870925 26.396 0.751542C26.5267 0.632158 26.6899 0.547192 26.8686 0.505524C27.0473 0.463855 27.2349 0.467013 27.4118 0.514667L30.5 1.34154L33.5881 0.514667C33.7654 0.467124 33.9533 0.464245 34.1322 0.506333C34.3112 0.548421 34.4744 0.633924 34.605 0.753878C34.7355 0.873832 34.8285 1.02382 34.8741 1.18811C34.9198 1.3524 34.9165 1.52494 34.8645 1.68765L33.9638 4.52265L34.8645 7.35765C34.9092 7.49839 34.9177 7.64675 34.8892 7.791C34.8606 7.93525 34.7959 8.07143 34.7002 8.18878C34.6045 8.30612 34.4803 8.4014 34.3375 8.46709C34.1948 8.53277 34.0373 8.56706 33.8776 8.56725L33.875 8.56252ZM30.5 5.76532C30.598 5.76536 30.6955 5.77849 30.7895 5.8043L32.358 6.22601L31.8986 4.78607C31.8432 4.61253 31.8432 4.42804 31.8986 4.2545L32.358 2.81456L30.7895 3.23627C30.6005 3.28713 30.3995 3.28713 30.2105 3.23627L28.642 2.81456L29.1013 4.25687C29.1567 4.4304 29.1567 4.61489 29.1013 4.78843L28.642 6.22837L30.2105 5.80667C30.3043 5.78006 30.4018 5.76613 30.5 5.76532Z" fill="#B18133"/>
<path d="M30.5 15.3276C30.227 15.3276 29.9652 15.228 29.7721 15.0508C29.5791 14.8736 29.4706 14.6332 29.4706 14.3826V6.71038C29.4706 6.45975 29.5791 6.21939 29.7721 6.04217C29.9652 5.86494 30.227 5.76538 30.5 5.76538C30.773 5.76538 31.0349 5.86494 31.2279 6.04217C31.4209 6.21939 31.5294 6.45975 31.5294 6.71038V14.3885C31.5277 14.6381 31.4185 14.877 31.2256 15.0529C31.0328 15.2289 30.7719 15.3276 30.5 15.3276Z" fill="#B18133"/>
<path d="M52.6612 17.064C52.4943 17.0644 52.33 17.0271 52.1825 16.9554L50.2756 16.0352L48.3687 16.9554C48.1987 17.0375 48.0071 17.0743 47.8155 17.0616C47.6239 17.0489 47.44 16.9873 47.2846 16.8837C47.1292 16.7801 47.0084 16.6387 46.936 16.4754C46.8636 16.312 46.8424 16.1334 46.8748 15.9596L47.2389 14.0105L45.6949 12.6296C45.5575 12.5065 45.4604 12.3505 45.4146 12.1794C45.3687 12.0082 45.3759 11.8287 45.4353 11.6611C45.4947 11.4935 45.604 11.3445 45.7509 11.2309C45.8977 11.1174 46.0762 11.0437 46.2662 11.0184L48.397 10.7337L49.3505 8.96186C49.4354 8.80366 49.5669 8.67046 49.7301 8.57732C49.8932 8.48418 50.0815 8.43481 50.2737 8.43481C50.4658 8.43481 50.6541 8.48418 50.8173 8.57732C50.9804 8.67046 51.1119 8.80366 51.1969 8.96186L52.1504 10.7337L54.2824 11.0184C54.4723 11.0439 54.6507 11.1177 54.7973 11.2313C54.944 11.345 55.0531 11.494 55.1124 11.6615C55.1717 11.8291 55.1788 12.0086 55.1328 12.1796C55.0869 12.3507 54.9898 12.5066 54.8525 12.6296L53.3084 14.0105L53.6725 15.9596C53.6978 16.0952 53.6906 16.2342 53.6513 16.3669C53.612 16.4996 53.5416 16.6229 53.445 16.728C53.3485 16.8332 53.2281 16.9178 53.0923 16.9758C52.9564 17.0338 52.8084 17.064 52.6586 17.064H52.6612ZM50.2756 14.0235C50.4423 14.0232 50.6065 14.0601 50.7543 14.131L51.2934 14.3921L51.1905 13.8404C51.1623 13.6894 51.1745 13.5344 51.226 13.3887C51.2776 13.243 51.3669 13.111 51.4864 13.0041L51.9239 12.6131L51.3204 12.5328C51.1558 12.5103 50.9995 12.4514 50.865 12.3613C50.7306 12.2712 50.6219 12.1525 50.5484 12.0154L50.2795 11.5145L50.0093 12.0154C49.9357 12.1525 49.8271 12.2712 49.6926 12.3613C49.5582 12.4514 49.4019 12.5103 49.2372 12.5328L48.6337 12.6131L49.0699 13.0041C49.1894 13.111 49.2788 13.243 49.3303 13.3887C49.3819 13.5344 49.3941 13.6894 49.3659 13.8404L49.263 14.3921L49.8021 14.131C49.9484 14.0611 50.1107 14.0243 50.2756 14.0235Z" fill="#B18133"/>
<path d="M13.11 17.064C12.9432 17.0642 12.7788 17.0269 12.6314 16.9554L10.7244 16.0352L8.81752 16.9554C8.64757 17.0371 8.45611 17.0737 8.26475 17.0609C8.07338 17.048 7.88973 16.9864 7.73451 16.8828C7.5793 16.7793 7.4587 16.638 7.38632 16.4748C7.31395 16.3117 7.29268 16.1332 7.32492 15.9596L7.68906 14.0105L6.145 12.6296C6.00768 12.5066 5.91057 12.3507 5.86463 12.1796C5.8187 12.0086 5.82578 11.8291 5.88506 11.6615C5.94434 11.494 6.05347 11.345 6.20013 11.2313C6.34678 11.1177 6.52512 11.0439 6.71502 11.0184L8.84711 10.7337L9.80057 8.96186C9.88555 8.80366 10.0171 8.67046 10.1802 8.57732C10.3434 8.48418 10.5317 8.43481 10.7238 8.43481C10.9159 8.43481 11.1042 8.48418 11.2674 8.57732C11.4305 8.67046 11.562 8.80366 11.647 8.96186L12.6005 10.7337L14.7313 11.0184C14.9213 11.0437 15.0998 11.1174 15.2466 11.2309C15.3934 11.3445 15.5027 11.4935 15.5621 11.6611C15.6216 11.8287 15.6288 12.0082 15.5829 12.1794C15.537 12.3505 15.4399 12.5065 15.3026 12.6296L13.7585 14.0105L14.1227 15.9596C14.148 16.0953 14.1407 16.2344 14.1013 16.3672C14.0619 16.5 13.9914 16.6233 13.8947 16.7285C13.7981 16.8337 13.6775 16.9182 13.5415 16.9762C13.4055 17.0341 13.2574 17.0641 13.1074 17.064H13.11ZM10.7244 14.0235C10.8915 14.0233 11.0562 14.0602 11.2044 14.131L11.7435 14.3921L11.6406 13.8404C11.6124 13.6894 11.6246 13.5344 11.6761 13.3887C11.7277 13.243 11.817 13.111 11.9365 13.0041L12.3727 12.6131L11.7692 12.5328C11.6046 12.5103 11.4483 12.4514 11.3139 12.3613C11.1794 12.2712 11.0707 12.1525 10.9972 12.0154L10.727 11.5145L10.4581 12.0154C10.3846 12.1525 10.2759 12.2712 10.1414 12.3613C10.007 12.4514 9.85072 12.5103 9.68605 12.5328L9.08258 12.6131L9.52006 13.0041C9.63954 13.111 9.7289 13.243 9.78046 13.3887C9.83201 13.5344 9.84421 13.6894 9.81601 13.8404L9.71307 14.3921L10.2522 14.131C10.398 14.061 10.5599 14.0242 10.7244 14.0235Z" fill="#B18133"/>
<path d="M19.9991 20.27C19.7818 20.2701 19.5701 20.207 19.3942 20.0899C19.2183 19.9728 19.0873 19.8076 19.0199 19.6179C18.3894 17.846 16.7283 14.8114 12.6983 14.5066C12.4301 14.481 12.1836 14.3599 12.0117 14.1692C11.8399 13.9785 11.7563 13.7336 11.7791 13.487C11.8018 13.2403 11.929 13.0118 12.1334 12.8504C12.3378 12.6889 12.603 12.6076 12.872 12.6237C18.2762 13.0313 20.3452 17.2412 20.9783 19.032C21.0203 19.15 21.0365 19.2745 21.026 19.3983C21.0156 19.5221 20.9786 19.6428 20.9173 19.7535C20.856 19.8642 20.7716 19.9627 20.6688 20.0434C20.566 20.1241 20.4468 20.1855 20.3182 20.2239C20.215 20.2541 20.1074 20.2697 19.9991 20.27Z" fill="#B18133"/>
<path d="M41.0009 20.2699C40.8926 20.2696 40.785 20.2541 40.6818 20.2239C40.5532 20.1854 40.434 20.1241 40.3312 20.0434C40.2284 19.9627 40.144 19.8642 40.0827 19.7535C40.0214 19.6428 39.9844 19.5221 39.974 19.3983C39.9635 19.2745 39.9797 19.15 40.0217 19.032C40.6586 17.2412 42.7238 13.0312 48.128 12.6237C48.396 12.6098 48.6592 12.6925 48.8617 12.8541C49.0642 13.0158 49.1899 13.2437 49.2121 13.4892C49.2342 13.7347 49.151 13.9785 48.9803 14.1685C48.8095 14.3586 48.5647 14.4799 48.2979 14.5066C44.2679 14.8114 42.6106 17.8413 41.9801 19.6132C41.9136 19.8037 41.783 19.9699 41.607 20.088C41.4311 20.206 41.2188 20.2697 41.0009 20.2699Z" fill="#B18133"/>
<path d="M52.9314 55.5231H8.06862C7.79561 55.5231 7.53379 55.4236 7.34074 55.2464C7.1477 55.0691 7.03925 54.8288 7.03925 54.5781V26.4349C7.03925 26.1842 7.1477 25.9439 7.34074 25.7667C7.53379 25.5894 7.79561 25.4899 8.06862 25.4899H52.9314C53.2044 25.4899 53.4662 25.5894 53.6592 25.7667C53.8523 25.9439 53.9607 26.1842 53.9607 26.4349V54.5781C53.9607 54.8288 53.8523 55.0691 53.6592 55.2464C53.4662 55.4236 53.2044 55.5231 52.9314 55.5231ZM9.098 53.6331H51.902V27.3799H9.098V53.6331Z" fill="#B18133"/>
<path d="M56.1057 27.3798H4.8943C4.66325 27.3799 4.4389 27.3086 4.25734 27.1774C4.07579 27.0462 3.94759 26.8627 3.89337 26.6566C3.83915 26.4504 3.86207 26.2334 3.95844 26.0407C4.0548 25.8479 4.21901 25.6905 4.42465 25.5938L30.0303 13.545C30.1757 13.4766 30.3367 13.4409 30.5 13.4409C30.6633 13.4409 30.8243 13.4766 30.9697 13.545L56.5754 25.5938C56.781 25.6905 56.9452 25.8479 57.0416 26.0407C57.1379 26.2334 57.1609 26.4504 57.1066 26.6566C57.0524 26.8627 56.9242 27.0462 56.7427 27.1774C56.5611 27.3086 56.3368 27.3799 56.1057 27.3798ZM9.16106 25.4898H51.8415L30.5 15.4445L9.16106 25.4898Z" fill="#B18133"/>
<path d="M37.0777 55.5231H23.9223C23.6493 55.5231 23.3875 55.4236 23.1944 55.2463C23.0014 55.0691 22.8929 54.8288 22.8929 54.5781V35.6699C22.8929 35.4192 23.0014 35.1789 23.1944 35.0016C23.3875 34.8244 23.6493 34.7249 23.9223 34.7249H37.0777C37.3507 34.7249 37.6126 34.8244 37.8056 35.0016C37.9987 35.1789 38.1071 35.4192 38.1071 35.6699V54.5781C38.1071 54.8288 37.9987 55.0691 37.8056 55.2463C37.6126 55.4236 37.3507 55.5231 37.0777 55.5231ZM24.9517 53.6331H36.0484V36.6149H24.9517V53.6331Z" fill="#B18133"/>
<path d="M18.1308 43.0869H11.2867C11.0137 43.0869 10.7519 42.9874 10.5588 42.8101C10.3658 42.6329 10.2573 42.3926 10.2573 42.1419V35.6699C10.2573 35.4192 10.3658 35.1789 10.5588 35.0016C10.7519 34.8244 11.0137 34.7249 11.2867 34.7249H18.1308C18.4038 34.7249 18.6656 34.8244 18.8586 35.0016C19.0517 35.1789 19.1601 35.4192 19.1601 35.6699V42.1419C19.1601 42.3926 19.0517 42.6329 18.8586 42.8101C18.6656 42.9874 18.4038 43.0869 18.1308 43.0869ZM12.3161 41.1969H17.1014V36.6149H12.3161V41.1969Z" fill="#B18133"/>
<path d="M49.7133 43.0869H42.8692C42.5962 43.0869 42.3344 42.9874 42.1413 42.8101C41.9483 42.6329 41.8398 42.3926 41.8398 42.1419V35.6699C41.8398 35.4192 41.9483 35.1789 42.1413 35.0016C42.3344 34.8244 42.5962 34.7249 42.8692 34.7249H49.7133C49.9863 34.7249 50.2481 34.8244 50.4412 35.0016C50.6342 35.1789 50.7427 35.4192 50.7427 35.6699V42.1419C50.7427 42.3926 50.6342 42.6329 50.4412 42.8101C50.2481 42.9874 49.9863 43.0869 49.7133 43.0869ZM43.8986 41.1969H48.6839V36.6149H43.8986V41.1969Z" fill="#B18133"/>
<path d="M27.5843 48.5881C27.3113 48.5881 27.0495 48.4885 26.8564 48.3113C26.6634 48.1341 26.5549 47.8937 26.5549 47.6431V42.605C26.5549 42.3544 26.6634 42.114 26.8564 41.9368C27.0495 41.7596 27.3113 41.66 27.5843 41.66C27.8573 41.66 28.1191 41.7596 28.3122 41.9368C28.5052 42.114 28.6137 42.3544 28.6137 42.605V47.6431C28.6137 47.8937 28.5052 48.1341 28.3122 48.3113C28.1191 48.4885 27.8573 48.5881 27.5843 48.5881Z" fill="#B18133"/>
</svg>
